<svg xmlns="http://www.w3.org/2000/svg" data-name="Layer 1" viewBox="0 0 635.6 632.21"><defs><clipPath id="a"><path d="M123.6 120.21h512v512h-512z" style="fill:none"/></clipPath></defs><path d="M123.6 120.21h512v512h-512z" style="fill:#fff"/><g style="clip-path:url(#a)"><path d="M444.16 212.18c.1-5.26-3.99-10.5-9.12-11.66l-17.55-4.03c-5.09-1.17-10.13-6.32-11.12-11.46l-4.09-16.52c-1.51-5.02.5-11.94 4.46-15.35l13.6-11.75c3.97-3.44 5.14-9.98 2.6-14.57l-13.5-24.38c-2.53-4.6-8.69-7.07-13.71-5.54l-17.19 5.29c-5.01 1.53-11.93-.43-15.38-4.36l-11.81-12.24c-3.82-3.61-5.53-10.59-3.81-15.55l5.91-16.99c1.71-4.94-.55-11.23-5.05-13.92l-23.87-14.37c-4.5-2.7-11.09-1.77-14.66 2.06l-12.22 13.18c-3.58 3.83-10.57 5.6-15.52 3.9l-16.37-4.66c-5.08-1.21-10.06-6.39-11.04-11.55l-3.38-17.69c-.99-5.16-6.08-9.44-11.32-9.53L212.16 0c-5.24-.09-10.48 3.99-11.63 9.12l-.36 1.55-3.68 16.01c-1.16 5.11-6.32 10.12-11.45 11.14l-16.53 4.07c-5.01 1.52-11.93-.5-15.35-4.46L141.4 23.82c-3.42-3.96-9.98-5.12-14.55-2.59l-24.39 13.49c-4.59 2.53-7.08 8.72-5.55 13.72l5.29 17.19c1.54 5.01-.42 11.93-4.37 15.4L85.59 92.84c-3.59 3.8-10.57 5.51-15.53 3.8l-17.01-5.91c-4.94-1.73-11.19.53-13.91 5.04l-14.38 23.88c-2.69 4.49-1.75 11.07 2.08 14.65l13.18 12.24c3.82 3.55 5.59 10.54 3.9 15.5l-4.68 16.36c-1.18 5.09-6.39 10.06-11.53 11.05l-17.68 3.4c-5.16.98-9.45 6.07-9.54 11.31L0 232.02c-.09 5.24 4 10.49 9.13 11.63l17.55 4.03c5.09 1.17 10.13 6.33 11.12 11.47l4.09 16.53c1.51 5.01-.51 11.92-4.46 15.34l-13.61 11.76c-3.96 3.42-5.13 9.98-2.61 14.55l13.5 24.4c2.55 4.58 8.71 7.09 13.71 5.54l17.21-5.28c5.01-1.54 11.93.42 15.38 4.35l11.81 12.25c3.82 3.59 5.53 10.57 3.81 15.53l-5.91 17c-1.71 4.94.55 11.2 5.05 13.92l23.89 14.36c4.48 2.71 11.07 1.78 14.63-2.07l12.23-13.17c3.58-3.83 10.57-5.58 15.52-3.9l16.37 4.67c1.29.31 2.57.88 3.78 1.63 3.57 2.21 6.53 6.07 7.26 9.93l3.41 17.66c.97 5.16 6.06 9.45 11.3 9.54l27.88.49c5.24.09 10.48-3.99 11.65-9.12l4.02-17.53c1.16-5.14 6.32-10.13 11.45-11.15l16.53-4.08c5.01-1.5 11.93.5 15.37 4.46l11.73 13.62c3.43 3.96 9.99 5.12 14.58 2.58l24.37-13.48c4.58-2.56 7.08-8.72 5.55-13.73l-5.3-17.19c-1.53-5.01.43-11.93 4.38-15.38l12.24-11.8c3.59-3.82 10.57-5.53 15.53-3.81l16.99 5.9c4.96 1.73 11.22-.55 13.91-5.04l14.38-23.89c2.71-4.49 1.77-11.06-2.07-14.64l-13.17-12.23c-3.83-3.57-5.59-10.56-3.9-15.51l4.68-16.37c1.18-5.09 6.39-10.07 11.53-11.06l17.68-3.4c5.16-.96 9.45-6.06 9.54-11.3l.49-27.86ZM306.4 337.7c-24.33 17.78-54.44 28.04-86.9 27.46-79.01-1.43-141.91-66.63-140.48-145.65C80.45 140.5 145.66 77.6 224.67 79.03c79.01 1.43 141.91 66.64 140.48 145.65-.84 46.56-23.83 87.53-58.75 113.02Z" style="fill:#ffba00"/><path d="m227.11 574.41 13.16-2.83c.48 4.58 2.46 8.36 5.93 11.37 3.47 3 7.81 4.51 13.02 4.51 14.17 0 21.26-7 21.26-20.99v-9.28c-1.74 3.14-4.46 5.7-8.17 7.67-3.71 1.97-8.08 2.96-13.09 2.96-9.26 0-16.9-2.94-22.93-8.81-6.03-5.87-9.04-13.39-9.04-22.54s2.99-16.35 8.97-22.4c5.98-6.06 13.64-9.08 23-9.08 10.61 0 17.74 3.41 21.41 10.23v-9.02h13.45v59.88c0 4.31-.6 8.32-1.81 12.04-1.21 3.72-3.11 7.15-5.71 10.29-2.6 3.14-6.24 5.6-10.92 7.4-4.68 1.79-10.15 2.69-16.42 2.69-8.58 0-15.86-2.27-21.84-6.79-5.98-4.53-9.4-10.29-10.27-17.29Zm34.13-17.22c5.88 0 10.65-1.9 14.32-5.72 3.66-3.81 5.5-8.81 5.5-15s-1.83-11.19-5.5-15c-3.67-3.81-8.44-5.72-14.32-5.72s-10.83 1.88-14.54 5.65c-3.71 3.77-5.57 8.79-5.57 15.07s1.81 11.42 5.42 15.14c3.62 3.72 8.51 5.58 14.68 5.58Zm95.76-8.48 11.72 3.77c-2.02 6.01-5.79 10.92-11.28 14.73s-12.15 5.72-19.96 5.72c-9.74 0-18.01-3.12-24.81-9.35-6.8-6.23-10.2-14.64-10.2-25.23 0-9.87 3.28-18.03 9.84-24.49 6.56-6.46 14.37-9.69 23.43-9.69 10.51 0 18.71 3.07 24.59 9.22 5.88 6.15 8.82 14.38 8.82 24.69 0 1.61-.1 2.96-.29 4.04H316.5c.09 5.74 2.14 10.45 6.15 14.13 4 3.68 8.94 5.52 14.83 5.52 9.93 0 16.44-4.35 19.53-13.05Zm-40.07-16.82h38.04c-.19-4.84-1.93-8.81-5.21-11.91-3.28-3.09-7.91-4.64-13.89-4.64-5.4 0-9.84 1.64-13.31 4.91-3.47 3.28-5.35 7.15-5.64 11.64Zm57.57 21.67c0-5.56 1.93-10.02 5.79-13.39 3.86-3.36 8.97-5.45 15.33-6.26l18.8-2.56c3.57-.45 5.35-2.06 5.35-4.84 0-3.41-1.25-6.19-3.76-8.34-2.51-2.15-6.27-3.23-11.28-3.23-4.63 0-8.29 1.19-10.99 3.57-2.7 2.38-4.29 5.54-4.77 9.49l-13.02-2.83c.67-6.19 3.71-11.24 9.11-15.14 5.4-3.9 11.86-5.85 19.38-5.85 9.83 0 17.12 2.22 21.84 6.66 4.72 4.44 7.09 10.11 7.09 17.02v32.43c0 3.86.29 7.4.87 10.63h-13.31c-.48-2.69-.72-5.61-.72-8.75-1.93 2.87-4.75 5.38-8.46 7.54-3.71 2.15-8.37 3.23-13.96 3.23-6.85 0-12.44-1.91-16.78-5.72-4.34-3.81-6.51-8.36-6.51-13.66Zm25.16 8.74c6.08 0 10.94-1.52 14.61-4.58 3.66-3.05 5.5-7.89 5.5-14.53v-2.96l-21.26 2.96c-3.09.45-5.55 1.48-7.38 3.09-1.83 1.61-2.75 3.81-2.75 6.59 0 2.51 1.04 4.71 3.11 6.59s4.8 2.83 8.17 2.83Zm85.78-56.78v13.46c-2.03-.27-4-.4-5.93-.4-12.73 0-19.09 6.64-19.09 19.91v32.43h-13.6V506.2h13.31v11.3c4.24-8.25 11.18-12.38 20.83-12.38 1.54 0 3.04.13 4.48.4Zm-4.78 63.38c-1.93-1.79-2.89-3.99-2.89-6.59s.96-4.82 2.89-6.66c1.93-1.84 4.29-2.76 7.09-2.76s5.18.92 7.16 2.76c1.97 1.84 2.96 4.06 2.96 6.66s-.99 4.8-2.96 6.59c-1.98 1.8-4.36 2.69-7.16 2.69s-5.16-.9-7.09-2.69Zm44.84 2.02h-13.6V473.5h13.6v97.42Zm77.82-64.73-29.65 27.31 30.23 37.41h-17.07l-22.71-28.53-9.69 9.01v19.51h-13.45v-97.42h13.45v61.36l30.09-28.66h18.8Z" style="fill:#00319f"/></g></svg>